<svg width="13" height="12" viewBox="0 0 13 12" fill="none" xmlns="http://www.w3.org/2000/svg">
<path d="M4.09544 11.9444C4.57423 11.9444 4.96237 11.5563 4.96237 11.0775C4.96237 10.5987 4.57423 10.2106 4.09544 10.2106C3.61665 10.2106 3.22852 10.5987 3.22852 11.0775C3.22852 11.5563 3.61665 11.9444 4.09544 11.9444Z" fill="#292929"/>
<path d="M9.36253 11.9444C9.84132 11.9444 10.2295 11.5563 10.2295 11.0775C10.2295 10.5987 9.84132 10.2106 9.36253 10.2106C8.88374 10.2106 8.49561 10.5987 8.49561 11.0775C8.49561 11.5563 8.88374 11.9444 9.36253 11.9444Z" fill="#292929"/>
<path d="M7.6556 2.31186C7.63805 2.18417 7.62904 2.05545 7.62863 1.92656C7.62904 1.79767 7.63805 1.66895 7.6556 1.54126H3.38647L3.63692 2.31186H7.6556Z" fill="#292929"/>
<path d="M10.5184 4.81619H10.3566L9.87497 6.93534H4.09547L2.33465 1.36005C2.3156 1.30089 2.28253 1.24721 2.23825 1.20361C2.19397 1.16 2.1398 1.12774 2.08035 1.1096L0.500622 0.624126C0.452048 0.609199 0.401009 0.603986 0.35042 0.608785C0.299831 0.613583 0.250682 0.628299 0.20578 0.652091C0.115097 0.700143 0.047216 0.78225 0.0170706 0.88035C-0.0130748 0.978451 -0.00301533 1.08451 0.0450361 1.17519C0.0930875 1.26588 0.175195 1.33376 0.273295 1.3639L1.65652 1.78773L3.42505 7.37458L2.79316 7.89088L2.74307 7.94097C2.58677 8.1211 2.49817 8.35009 2.49254 8.58851C2.48692 8.82692 2.56461 9.05984 2.71224 9.24714C2.81726 9.37485 2.95071 9.47621 3.10191 9.54312C3.25312 9.61002 3.41788 9.64061 3.58302 9.63244H10.0137C10.1159 9.63244 10.2139 9.59184 10.2861 9.51959C10.3584 9.44733 10.399 9.34933 10.399 9.24714C10.399 9.14495 10.3584 9.04695 10.2861 8.97469C10.2139 8.90243 10.1159 8.86184 10.0137 8.86184H3.52137C3.477 8.86032 3.43378 8.84739 3.39586 8.82429C3.35795 8.80119 3.32664 8.76871 3.30495 8.72997C3.28326 8.69124 3.27192 8.64756 3.27204 8.60317C3.27215 8.55877 3.28371 8.51516 3.30561 8.47654L4.23418 7.70594H10.1832C10.2723 7.70812 10.3593 7.67936 10.4296 7.62456C10.4998 7.56977 10.5489 7.49232 10.5685 7.4054L11.1734 4.74298C10.9586 4.79225 10.7388 4.81681 10.5184 4.81619Z" fill="#292929"/>
<path d="M10.5184 3.853C11.5824 3.853 12.4449 2.99048 12.4449 1.9265C12.4449 0.862523 11.5824 0 10.5184 0C9.45444 0 8.59192 0.862523 8.59192 1.9265C8.59192 2.99048 9.45444 3.853 10.5184 3.853Z" fill="#F0AC01"/>
</svg>
